<?xml version="1.0" encoding="utf-8"?>
<!-- Generator: Adobe Illustrator 22.0.0, SVG Export Plug-In . SVG Version: 6.00 Build 0)  -->
<svg version="1.1" id="Layer_1" xmlns="http://www.w3.org/2000/svg" xmlns:xlink="http://www.w3.org/1999/xlink" x="0px" y="0px"
	 viewBox="0 0 512 512" style="enable-background:new 0 0 512 512;" xml:space="preserve">
<style type="text/css">
	.st0{fill:#B3915A;}
</style>
<g>
	<g>
		<path class="st0" d="M0,327.8c8.6-14.9,16.4-30.4,25.9-44.7C60.3,230.8,95.1,178.8,130,126.8c15.4-22.9,36.1-36,64.8-33.1
			c3.3,0.3,6.6,1.1,9.7,2.1c10.4,3.2,12,7.6,6,16.8c-9.6,14.7-19.4,29.3-30.4,45.8c53.1,6.8,104.7,13.3,157.4,20
			c-1.5,5.3-2.7,9.9-4.2,15.4c-23.4-2.9-46.4-5.6-69.5-8.6c-28.7-3.6-57.5-7.2-86.2-11.2c-6.4-0.9-9.5,1.8-12.8,6.7
			c-26.4,40-53.2,79.8-79.4,119.9c-5.2,7.9-9.9,10.8-19.6,6.8c-6.6-2.7-15.1-2.9-22.3-1.8c-16.7,2.7-27.6,15.6-27.6,30.6
			C16,353,27.5,367.2,44.5,370c34.8,5.6,69.8,10.6,104.7,15.8c37.5,5.6,75.1,11,112.6,16.6c1.9,0.3,3.7,1.1,6.6,2.1
			c-13.4,6.7-24.9,12.1-40.4,9.6c-60.4-10-121-18.8-181.7-27.4C21.5,383.1,7.5,368.5,0,345.8C0,339.8,0,333.8,0,327.8z"/>
		<path class="st0" d="M404,511.9c-26.2-9.4-52.4-18.8-78.7-28c-28.6-10-57.3-19.5-85.7-29.8c-4-1.4-6.9-5.9-10.3-9
			c3-3.1,5.5-7.5,9.1-9.1c73.2-32.6,146.6-65,220-97.1c3.6-1.6,10.2-2.1,12.4,0c2.3,2.1,2.2,8.6,0.9,12.4
			c-17.8,50.2-35.9,100.2-54.1,150.2c-1.3,3.7-3.7,6.9-5.5,10.4C409.4,511.9,406.7,511.9,404,511.9z M420,401.5
			c-0.3-7.6-6-10.3-14.2-6.8c-24.9,10.9-49.8,21.8-74.5,33.2c-3.3,1.5-7.5,5.9-7.4,8.8c0.1,2.9,4.6,7,8,8.3
			c17.7,6.6,35.7,12.4,53.5,18.7c7.9,2.8,12.4,0.5,15.1-7.6c5.6-16.6,11.9-33.1,17.8-49.6C419.1,404.6,419.6,402.7,420,401.5z"/>
		<path class="st0" d="M369.8,288c-10.6,18.8-20.7,36.3-30.4,54.1c-3.8,7.1-8.2,9.7-16.8,8.3c-49-7.7-98-14.7-147-22.1
			c-12.4-1.9-14-5.6-7.8-16.6c10.8-19.1,21.6-38.1,33.6-59.1c-5.6,0.7-9.4,0.9-13,1.8c-6,1.4-12.2,2-13.8-5.3
			c-1.9-8.5,5.4-9.5,11.3-10.6c23.2-4.3,46.5-8.4,69.7-12.6c16.7-3,33.3-6.5,50.1-8.8c4.2-0.6,10.1,0.9,13.3,3.6
			c24.4,21.2,48.2,43,72.3,64.5c4.4,3.9,7.7,8.3,3.3,13.6c-4.6,5.5-9.4,2.7-13.7-1.2C377.6,294.7,374.3,291.9,369.8,288z
			 M249.1,291.8c2.2-4,4.4-6.3,4.5-8.7c0.3-4.1,0.8-9.9-1.5-12c-4.5-4.1-9.2-1-12.1,4c-3.2,5.5-6.4,10.9-9.5,16.4
			c-4.6,8.5-2.5,12.8,7.3,14.4c20,3.2,40,6.6,60.2,9.2c3.5,0.5,9.1-1.4,11-4.1c4.9-7,8.8-14.9,11.8-23c1-2.6-1-8.5-3.3-9.7
			c-2.3-1.3-7.9,0.3-10,2.5c-3.3,3.5-4.6,8.8-7.5,12.8c-1.6,2.2-5,4.7-7.3,4.4C278.6,296.5,264.5,294.2,249.1,291.8z"/>
		<path class="st0" d="M365.8,138.1c-5.2,0-8.9,0.9-11.7-0.2c-3.1-1.4-5.5-4.6-8.1-7c2.7-2.8,5.9-8.5,7.9-8.1
			c17.4,3.6,19.6-8.2,22.2-20.2c0.8-3.9,2.1-7.7,3.3-11.5c2.9-8.6,4-15.3-4.1-23.6c-13.9-14.1-7.7-37.3,10.1-47.6
			c2.8-1.6,6-5.1,6.4-8c0.8-6.1,1.3-12.1,8.9-11.7c7,0.4,7.6,6.3,7.4,11.9c-0.1,1.3,0,2.6,0,4.7c1.9,1,3.9,1.9,5.9,3
			c20,10.7,24.1,35.6,7.8,51.2c-4.8,4.5-5.2,8.2-3.3,13.7c2.4,7.2,5.1,14.5,6.3,22c1.9,11.4,6.4,17.8,19.5,16
			c2.8-0.4,8.6,4.3,9.3,7.4c1.3,6.2-3.9,8.2-9.6,8.3c-2.9,0-5.8,0.3-9.7,0.5c6.3,22.5,12.4,44.2,18.4,65.9c0.8,2.9,2.4,6.1,1.7,8.6
			c-0.9,3-3.4,6.7-6,7.7c-2,0.7-6.3-1.7-8-3.9c-2.1-2.8-2.7-6.7-3.7-10.2c-5.7-20.1-11.5-40.3-16.9-60.5c-1.6-6.2-4.5-8.2-11-8.2
			c-25.9,0.1-25.9-0.2-33,25c-4.5,16-9.1,32-13.7,47.9c-1.6,5.6-3.4,11.9-11,9.8c-7.5-2-6.2-8.4-4.6-14.1
			C352.6,184.6,359,162.2,365.8,138.1z M415.9,48.4c0-8.5-7.4-16-15.9-16.1c-8.5-0.1-15.9,7.3-16,15.9c0,8.9,6.9,15.8,15.8,15.8
			C408.8,64.1,415.9,57.1,415.9,48.4z M401.2,81.9c-0.8,0-1.6,0-2.4,0c-3.7,13.1-7.5,26.2-11.3,39.5c9.5,0,16.8,0,25.1,0
			C408.6,107.5,404.9,94.7,401.2,81.9z"/>
		<path class="st0" d="M93,344.3c77.5,11.8,153.4,23.4,229.6,35c-16.4,15.3-34.7,11.1-53.1,8.3C208.4,378,147.2,368.8,86,359.5
			c-16.6-2.5-18.4-6.6-9.2-20.5c24.5-36.9,49-73.8,73.5-110.7c1.8-2.8,3.4-6.2,6-7.8c2.3-1.4,6.8-2,8.8-0.6c2.1,1.3,3.6,5.5,3.4,8.3
			c-0.3,3-2.8,5.9-4.6,8.7c-21.9,33-43.8,66-65.7,99.1C96.7,338.1,95.4,340.4,93,344.3z"/>
		<path class="st0" d="M419.8,337c23.8-41.2,47-81.3,70.8-122.5c-10.5-2.9-25.5,0-21.8-19.3c12,1.5,24.5,2.6,36.8,5
			c6.6,1.2,8,6.4,4.8,12.4c-2.8,5.3-5.9,10.4-8.9,15.6c-15.9,27.3-32.4,54.3-47.3,82.2C446.7,324.2,437,333.5,419.8,337z"/>
		<path class="st0" d="M382.1,200c0.9-3.9,1.5-6.7,2.3-9.6c0.4-1.6,1.2-3.1,1.8-4.5c25.4-1.9,30.3,0.8,31.6,18.4
			C405.9,203,394.3,201.5,382.1,200z"/>
		<path class="st0" d="M352.9,435.5c12.6,4.3,22.8,7.7,33.8,11.5c3.6-10,6.9-19.1,11.3-31.2C381.9,422.7,368.8,428.5,352.9,435.5z"
			/>
		<path class="st0" d="M352.9,435.5c15.8-6.9,29-12.7,45-19.7c-4.4,12.1-7.7,21.2-11.3,31.2C375.7,443.2,365.5,439.7,352.9,435.5z"
			/>
	</g>
</g>
</svg>
