<?xml version="1.0" encoding="utf-8"?>
<!-- Generator: Adobe Illustrator 22.0.0, SVG Export Plug-In . SVG Version: 6.00 Build 0)  -->
<svg version="1.1" id="Layer_1" xmlns="http://www.w3.org/2000/svg" xmlns:xlink="http://www.w3.org/1999/xlink" x="0px" y="0px"
	 viewBox="0 0 1024 1024" style="enable-background:new 0 0 1024 1024;" xml:space="preserve">
<style type="text/css">
	.st0{fill:url(#SVGID_1_);}
	.st1{fill:url(#SVGID_2_);}
	.st2{fill:url(#SVGID_3_);}
	.st3{fill:url(#SVGID_4_);}
	.st4{fill:url(#SVGID_5_);}
	.st5{fill:url(#SVGID_6_);}
	.st6{fill:url(#SVGID_7_);}
	.st7{fill:url(#SVGID_8_);}
	.st8{fill:url(#SVGID_9_);}
	.st9{fill:url(#SVGID_10_);}
	.st10{fill:url(#SVGID_11_);}
	.st11{fill:url(#SVGID_12_);}
	.st12{clip-path:url(#SVGID_15_);fill:url(#SVGID_16_);}
	.st13{fill:url(#SVGID_17_);}
	.st14{fill:url(#SVGID_18_);}
	.st15{fill:url(#SVGID_19_);}
	.st16{fill:#FFFFFF;}
	.st17{font-family:'MyriadPro-Regular';}
	.st18{font-size:47.09px;}
	.st19{letter-spacing:1;}
	.st20{fill:none;stroke:url(#SVGID_20_);stroke-width:0.4601;stroke-linecap:round;stroke-miterlimit:10;}
	.st21{fill:none;stroke:url(#SVGID_21_);stroke-width:0.4601;stroke-linecap:round;stroke-miterlimit:10;}
</style>
<g>
	<g>
		<g>
			<linearGradient id="SVGID_1_" gradientUnits="userSpaceOnUse" x1="981.4064" y1="563.9296" x2="981.4064" y2="660.2495">
				<stop  offset="6.891026e-02" style="stop-color:#8E6631"/>
				<stop  offset="0.302" style="stop-color:#BC9B5B"/>
				<stop  offset="0.7759" style="stop-color:#BE9D5D"/>
				<stop  offset="0.8091" style="stop-color:#B59355"/>
				<stop  offset="0.9323" style="stop-color:#99723B"/>
				<stop  offset="1" style="stop-color:#8E6631"/>
			</linearGradient>
			<path class="st0" d="M1016,660.2l-11.8-31h-45.8l-11.8,31h-7.5l37.4-96.3h9.9l37.2,96.3H1016z M960.9,622.9h40.9l-20.6-54.5
				L960.9,622.9z"/>
			<linearGradient id="SVGID_2_" gradientUnits="userSpaceOnUse" x1="445.6488" y1="563.9296" x2="445.6488" y2="660.2495">
				<stop  offset="6.891026e-02" style="stop-color:#8E6631"/>
				<stop  offset="0.302" style="stop-color:#BC9B5B"/>
				<stop  offset="0.7759" style="stop-color:#BE9D5D"/>
				<stop  offset="0.8091" style="stop-color:#B59355"/>
				<stop  offset="0.9323" style="stop-color:#99723B"/>
				<stop  offset="1" style="stop-color:#8E6631"/>
			</linearGradient>
			<path class="st1" d="M418.7,660.2v-96.3h17.1c10.8,0,18.9,2,23.8,6.1c4.9,4,7.4,10.3,7.4,18.8c0,4.3-0.8,8-2.5,11
				c-1.6,3-4.2,5.5-7.5,7.4l-2.2,1.3l2.4,1c5.1,2.1,8.9,5.1,11.4,8.9c2.5,3.8,3.8,8.5,3.8,14c0,9.6-2.6,16.7-7.9,21.2
				c-5.3,4.5-13.8,6.8-25.4,6.8H418.7z M425.5,653.4h14.9c8.3,0,14.5-1.6,18.5-4.8c4.1-3.3,6.2-8.3,6.2-15c0-6.7-2.1-11.7-6.3-15.1
				c-4.1-3.3-10.3-4.9-18.4-4.9h-14.9V653.4z M425.5,606.6h7.1c10,0,16.8-1.4,20.9-4.2c4.2-2.9,6.3-7.6,6.3-14
				c0-6.1-2.1-10.6-6.1-13.4c-4-2.8-10-4.1-18.5-4.1h-9.6V606.6z"/>
			<linearGradient id="SVGID_3_" gradientUnits="userSpaceOnUse" x1="888.5054" y1="563.9296" x2="888.5054" y2="664.1887">
				<stop  offset="6.891026e-02" style="stop-color:#8E6631"/>
				<stop  offset="0.302" style="stop-color:#BC9B5B"/>
				<stop  offset="0.7759" style="stop-color:#BE9D5D"/>
				<stop  offset="0.8091" style="stop-color:#B59355"/>
				<stop  offset="0.9323" style="stop-color:#99723B"/>
				<stop  offset="1" style="stop-color:#8E6631"/>
			</linearGradient>
			<path class="st2" d="M892.1,664.2c-14.1,0-26-4.9-35.5-14.5c-9.4-9.6-14.2-21.8-14.2-36.3c0-6.7,1.3-13.2,3.8-19.2
				c2.5-6,6.3-11.5,11.3-16.4c4.6-4.6,9.8-8.1,15.4-10.4c5.7-2.3,11.9-3.5,18.6-3.5c9.5,0,18.2,2.4,25.9,7
				c7.1,4.3,12.8,10.4,17.2,18h-8.9c-4.4-6-9.5-10.5-14.9-13.4c-5.6-3-12.1-4.5-19.3-4.5c-11.3,0-21.1,4.2-29.1,12.6
				c-8,8.4-12.1,18.4-12.1,29.9c0,12.2,4,22.7,12,31.1c8,8.4,17.8,12.7,29.2,12.7c7,0,13.4-1.5,19.1-4.4c5.5-2.8,10.4-7.1,14.5-12.6
				h8.7c-4.3,7.3-9.9,13.1-16.7,17.2C909.7,661.9,901.3,664.2,892.1,664.2z"/>
			<linearGradient id="SVGID_4_" gradientUnits="userSpaceOnUse" x1="591.0902" y1="563.9296" x2="591.0902" y2="660.2513">
				<stop  offset="6.891026e-02" style="stop-color:#8E6631"/>
				<stop  offset="0.302" style="stop-color:#BC9B5B"/>
				<stop  offset="0.7759" style="stop-color:#BE9D5D"/>
				<stop  offset="0.8091" style="stop-color:#B59355"/>
				<stop  offset="0.9323" style="stop-color:#99723B"/>
				<stop  offset="1" style="stop-color:#8E6631"/>
			</linearGradient>
			<rect x="587.5" y="563.9" class="st3" width="7.2" height="96.3"/>
			<linearGradient id="SVGID_5_" gradientUnits="userSpaceOnUse" x1="645.1562" y1="563.9296" x2="645.1562" y2="660.2513">
				<stop  offset="6.891026e-02" style="stop-color:#8E6631"/>
				<stop  offset="0.302" style="stop-color:#BC9B5B"/>
				<stop  offset="0.7759" style="stop-color:#BE9D5D"/>
				<stop  offset="0.8091" style="stop-color:#B59355"/>
				<stop  offset="0.9323" style="stop-color:#99723B"/>
				<stop  offset="1" style="stop-color:#8E6631"/>
			</linearGradient>
			<polygon class="st4" points="624.2,660.3 624.2,563.9 631.4,563.9 631.4,653.2 666.2,653.2 666.2,660.3 			"/>
			<linearGradient id="SVGID_6_" gradientUnits="userSpaceOnUse" x1="709.847" y1="563.9296" x2="709.847" y2="660.2513">
				<stop  offset="6.891026e-02" style="stop-color:#8E6631"/>
				<stop  offset="0.302" style="stop-color:#BC9B5B"/>
				<stop  offset="0.7759" style="stop-color:#BE9D5D"/>
				<stop  offset="0.8091" style="stop-color:#B59355"/>
				<stop  offset="0.9323" style="stop-color:#99723B"/>
				<stop  offset="1" style="stop-color:#8E6631"/>
			</linearGradient>
			<polygon class="st5" points="688.8,660.3 688.8,563.9 696.1,563.9 696.1,653.2 730.8,653.2 730.8,660.3 			"/>
			<linearGradient id="SVGID_7_" gradientUnits="userSpaceOnUse" x1="780.0606" y1="563.9296" x2="780.0606" y2="664.1896">
				<stop  offset="6.891026e-02" style="stop-color:#8E6631"/>
				<stop  offset="0.302" style="stop-color:#BC9B5B"/>
				<stop  offset="0.7759" style="stop-color:#BE9D5D"/>
				<stop  offset="0.8091" style="stop-color:#B59355"/>
				<stop  offset="0.9323" style="stop-color:#99723B"/>
				<stop  offset="1" style="stop-color:#8E6631"/>
			</linearGradient>
			<path class="st6" d="M779.8,664.2c-13.8,0-25.5-4.9-34.9-14.6c-9.4-9.7-14.1-21.9-14.1-36.2c0-6.7,1.3-13.1,3.9-19.2
				c2.6-6.1,6.3-11.6,11.2-16.4c4.7-4.6,9.9-8.1,15.6-10.5c5.6-2.3,11.8-3.5,18.4-3.5c6.7,0,13,1.2,18.8,3.5
				c5.7,2.3,11,5.9,15.8,10.6c4.9,4.8,8.6,10.2,11.1,16.1c2.5,5.9,3.7,12.4,3.7,19.3c0,6.8-1.1,13.2-3.2,18.9
				c-2.1,5.7-5.3,10.9-9.5,15.6c-4.9,5.4-10.5,9.5-16.6,12.2C793.8,662.8,787,664.2,779.8,664.2z M779.8,570.8
				c-4.7,0-9.3,0.8-13.6,2.4c-4.4,1.6-8.4,4-12.1,7.1c-4.8,4.1-8.7,9.1-11.4,15c-2.8,5.9-4.2,12-4.2,18.2c0,12.3,4.1,22.8,12.1,31.2
				c8,8.4,18.1,12.6,29.9,12.6c11.5,0,21.4-4.3,29.4-12.8c7.9-8.4,12-19,12-31.3c0-11.5-4.1-21.6-12.3-29.9
				C801.3,575.1,791.3,570.8,779.8,570.8z"/>
			<linearGradient id="SVGID_8_" gradientUnits="userSpaceOnUse" x1="533.7149" y1="563.9296" x2="533.7149" y2="660.2513">
				<stop  offset="6.891026e-02" style="stop-color:#8E6631"/>
				<stop  offset="0.302" style="stop-color:#BC9B5B"/>
				<stop  offset="0.7759" style="stop-color:#BE9D5D"/>
				<stop  offset="0.8091" style="stop-color:#B59355"/>
				<stop  offset="0.9323" style="stop-color:#99723B"/>
				<stop  offset="1" style="stop-color:#8E6631"/>
			</linearGradient>
			<path class="st7" d="M554.4,660.3l-27.8-45.1h7.1c6.6,0,12-2,16.1-5.8c4.2-3.9,6.3-9,6.3-15.1c0-3.6-0.6-7-1.9-10
				c-1.3-3-3.2-5.7-5.7-7.9c-2.1-1.9-4.6-3.3-7.5-4.1c-2.9-0.8-7.8-1.2-15-1.2h-15.6v89.2h-7v-96.3h25.3c5.7,0,10.3,0.4,13.8,1.3
				c3.4,0.8,6.5,2.2,9.3,4.2c3.7,2.6,6.7,6.2,8.9,10.6c2.2,4.4,3.3,9.2,3.3,14.1c0,7.3-2.2,13.7-6.5,19c-4.3,5.2-9.7,8.1-16.2,8.6
				l-2.1,0.2l23.8,38.5H554.4z"/>
		</g>
		<g>
			<linearGradient id="SVGID_9_" gradientUnits="userSpaceOnUse" x1="969.0435" y1="327.9121" x2="969.0435" y2="523.5089">
				<stop  offset="6.891026e-02" style="stop-color:#8E6631"/>
				<stop  offset="0.302" style="stop-color:#BC9B5B"/>
				<stop  offset="0.3167" style="stop-color:#BF9E5E"/>
				<stop  offset="0.578" style="stop-color:#F0D88C"/>
				<stop  offset="0.7759" style="stop-color:#BE9D5D"/>
				<stop  offset="0.8091" style="stop-color:#B59355"/>
				<stop  offset="0.9323" style="stop-color:#99723B"/>
				<stop  offset="1" style="stop-color:#8E6631"/>
			</linearGradient>
			<path class="st8" d="M914.4,523.5V327.9h34.8c22,0,38.3,4.1,48.4,12.3c10,8,15,20.9,15,38.2c0,8.7-1.7,16.2-5.1,22.3
				c-3.3,6.1-8.4,11.1-15.2,15l-4.5,2.6l4.8,2c10.3,4.3,18.1,10.3,23.2,18c5.1,7.7,7.7,17.2,7.7,28.4c0,19.5-5.4,34-16,43
				c-10.7,9.1-28.1,13.7-51.5,13.7H914.4z M928.1,509.5h30.3c16.8,0,29.5-3.3,37.7-9.8c8.4-6.6,12.6-16.9,12.6-30.4
				c0-13.5-4.3-23.8-12.8-30.6c-8.3-6.6-20.9-10-37.5-10h-30.3V509.5z M928.1,414.6h14.4c20.2,0,34.1-2.8,42.4-8.5
				c8.5-5.9,12.8-15.5,12.8-28.5c0-12.3-4.2-21.5-12.4-27.3c-8.1-5.7-20.4-8.4-37.6-8.4h-19.5V414.6z"/>
			<linearGradient id="SVGID_10_" gradientUnits="userSpaceOnUse" x1="512.2816" y1="319.9128" x2="512.2816" y2="523.5089">
				<stop  offset="6.891026e-02" style="stop-color:#8E6631"/>
				<stop  offset="0.302" style="stop-color:#BC9B5B"/>
				<stop  offset="0.3167" style="stop-color:#BF9E5E"/>
				<stop  offset="0.578" style="stop-color:#F0D88C"/>
				<stop  offset="0.7759" style="stop-color:#BE9D5D"/>
				<stop  offset="0.8091" style="stop-color:#B59355"/>
				<stop  offset="0.9323" style="stop-color:#99723B"/>
				<stop  offset="1" style="stop-color:#8E6631"/>
			</linearGradient>
			<path class="st9" d="M519.6,523.5c-28.6,0-52.9-9.9-72-29.4c-19.1-19.5-28.8-44.3-28.8-73.6c0-13.7,2.6-26.8,7.8-39
				c5.2-12.2,12.9-23.4,22.9-33.2c9.3-9.3,19.8-16.4,31.4-21.2c11.5-4.8,24.2-7.2,37.7-7.2c19.4,0,37,4.8,52.5,14.2
				c14.3,8.8,26,21,34.9,36.6h-18.1c-9-12.2-19.2-21.4-30.3-27.3c-11.5-6.1-24.7-9.1-39.3-9.1c-23,0-42.9,8.6-59.2,25.6
				c-16.3,17-24.5,37.4-24.5,60.8c0,24.8,8.2,46.1,24.4,63.1c16.2,17.1,36.1,25.8,59.3,25.8c14.2,0,27.3-3,38.8-9
				c11.2-5.8,21-14.4,29.4-25.6h17.7c-8.7,14.8-20.1,26.5-33.9,34.9C555.3,518.9,538.2,523.5,519.6,523.5z"/>
			<linearGradient id="SVGID_11_" gradientUnits="userSpaceOnUse" x1="680.705" y1="327.9085" x2="680.705" y2="523.5089">
				<stop  offset="6.891026e-02" style="stop-color:#8E6631"/>
				<stop  offset="0.302" style="stop-color:#BC9B5B"/>
				<stop  offset="0.3167" style="stop-color:#BF9E5E"/>
				<stop  offset="0.578" style="stop-color:#F0D88C"/>
				<stop  offset="0.7759" style="stop-color:#BE9D5D"/>
				<stop  offset="0.8091" style="stop-color:#B59355"/>
				<stop  offset="0.9323" style="stop-color:#99723B"/>
				<stop  offset="1" style="stop-color:#8E6631"/>
			</linearGradient>
			<polygon class="st10" points="638.1,523.5 638.1,327.9 652.8,327.9 652.8,509.2 723.4,509.2 723.4,523.5 			"/>
			<linearGradient id="SVGID_12_" gradientUnits="userSpaceOnUse" x1="812.7471" y1="323.6341" x2="812.7471" y2="523.5089">
				<stop  offset="6.891026e-02" style="stop-color:#8E6631"/>
				<stop  offset="0.302" style="stop-color:#BC9B5B"/>
				<stop  offset="0.3167" style="stop-color:#BF9E5E"/>
				<stop  offset="0.578" style="stop-color:#F0D88C"/>
				<stop  offset="0.7759" style="stop-color:#BE9D5D"/>
				<stop  offset="0.8091" style="stop-color:#B59355"/>
				<stop  offset="0.9323" style="stop-color:#99723B"/>
				<stop  offset="1" style="stop-color:#8E6631"/>
			</linearGradient>
			<path class="st11" d="M814.2,523.5c-21.6,0-37.7-6-47.7-17.8c-10.1-12-15.2-31.1-15.2-56.9V323.6h14.6V448
				c0,10.1,0.4,17.4,1.2,22.5c0.8,5.1,2.2,9.7,4.2,13.7c3.8,8,9.4,14.4,16.7,19c7.3,4.6,15.7,6.9,24.9,6.9c16,0,28-5.6,35.8-16.6
				c7.5-10.7,11.4-27.4,11.4-49.5V323.6h14.3v125.1c0,25.3-5,44.3-14.9,56.6C849.5,517.4,834.3,523.5,814.2,523.5z"/>
		</g>
		<g>
			<g>
				<defs>
					<path id="SVGID_13_" d="M201.4,254.5c0,0-4.2,111.5,11.2,195.7c17.8,97.5,79.5,149.9,120.9,207
						C283.4,622.5,205.7,525,188.2,539.4c-17.5,14.4-55.6,56.8-106.8,124.8c6.4-23.1,73.9-155.2,77.4-204
						c3.4-48.8-120-48.8-158.7-51.1c75.1-9.3,165.6-0.4,174.6-35.6C186,329,195,288.4,201.4,254.5z"/>
				</defs>
				<linearGradient id="SVGID_14_" gradientUnits="userSpaceOnUse" x1="0" y1="459.3202" x2="333.4338" y2="459.3202">
					<stop  offset="6.891026e-02" style="stop-color:#8E6631"/>
					<stop  offset="0.302" style="stop-color:#BC9B5B"/>
					<stop  offset="0.3167" style="stop-color:#BF9E5E"/>
					<stop  offset="0.578" style="stop-color:#F0D88C"/>
					<stop  offset="0.7759" style="stop-color:#BE9D5D"/>
					<stop  offset="0.8091" style="stop-color:#B59355"/>
					<stop  offset="0.9323" style="stop-color:#99723B"/>
					<stop  offset="1" style="stop-color:#8E6631"/>
				</linearGradient>
				<use xlink:href="#SVGID_13_"  style="overflow:visible;fill:url(#SVGID_14_);"/>
				<clipPath id="SVGID_15_">
					<use xlink:href="#SVGID_13_"  style="overflow:visible;"/>
				</clipPath>
				<linearGradient id="SVGID_16_" gradientUnits="userSpaceOnUse" x1="-59.148" y1="446.1986" x2="357.5933" y2="446.1986">
					<stop  offset="6.891026e-02" style="stop-color:#8E6631"/>
					<stop  offset="0.302" style="stop-color:#BC9B5B"/>
					<stop  offset="0.3167" style="stop-color:#BF9E5E"/>
					<stop  offset="0.578" style="stop-color:#F0D88C"/>
					<stop  offset="0.7759" style="stop-color:#BE9D5D"/>
					<stop  offset="0.8091" style="stop-color:#B59355"/>
					<stop  offset="0.9323" style="stop-color:#99723B"/>
					<stop  offset="1" style="stop-color:#8E6631"/>
				</linearGradient>
				<path class="st12" d="M239.6,223.1c-32.1-38.7-140-9.7-125.7,71.3c2,11.1,6.9,25.6,14,42.2c-67.8-27-198.9,21.2-186.2,66.3
					c8.4,29.7,40.4,102,77.4,149.3C6.5,604.3,14,667,34.4,674.3c35.6,12.7,158.4,22.6,189.4-10.1c16.1-17,34.5-24.8,43.2-34.7
					c15.5,12.4,28.8,21.1,37.3,23.4c7.5,2,11.8-0.3,13.6-5.9c2.1,2.6,3.9,4.6,5.2,5.9c38.2,37.6,33.6,0.6,34.4-18.8
					C358.4,614.7,271.7,261.8,239.6,223.1z"/>
			</g>
			<linearGradient id="SVGID_17_" gradientUnits="userSpaceOnUse" x1="259.3397" y1="378.381" x2="294.1055" y2="378.381">
				<stop  offset="6.891026e-02" style="stop-color:#8E6631"/>
				<stop  offset="0.302" style="stop-color:#BC9B5B"/>
				<stop  offset="0.3167" style="stop-color:#BF9E5E"/>
				<stop  offset="0.578" style="stop-color:#F0D88C"/>
				<stop  offset="0.7759" style="stop-color:#BE9D5D"/>
				<stop  offset="0.8091" style="stop-color:#B59355"/>
				<stop  offset="0.9323" style="stop-color:#99723B"/>
				<stop  offset="1" style="stop-color:#8E6631"/>
			</linearGradient>
			<path class="st13" d="M261.2,373.8c-4.3,11.2-0.8,22.4,7.8,24.9c8.6,2.5,19-4.5,23.3-15.8c4.3-11.2,0.8-22.4-7.8-24.9
				C275.9,355.5,265.5,362.6,261.2,373.8z"/>
			<linearGradient id="SVGID_18_" gradientUnits="userSpaceOnUse" x1="114.317" y1="360.3199" x2="154.9104" y2="360.3199">
				<stop  offset="6.891026e-02" style="stop-color:#8E6631"/>
				<stop  offset="0.302" style="stop-color:#BC9B5B"/>
				<stop  offset="0.3167" style="stop-color:#BF9E5E"/>
				<stop  offset="0.578" style="stop-color:#F0D88C"/>
				<stop  offset="0.7759" style="stop-color:#BE9D5D"/>
				<stop  offset="0.8091" style="stop-color:#B59355"/>
				<stop  offset="0.9323" style="stop-color:#99723B"/>
				<stop  offset="1" style="stop-color:#8E6631"/>
			</linearGradient>
			<path class="st14" d="M128.1,375.2c10.6,5.7,22.1,3.7,25.7-4.5c3.6-8.2-2.1-19.4-12.7-25.1c-10.6-5.7-22.1-3.7-25.7,4.5
				C111.8,358.2,117.5,369.5,128.1,375.2z"/>
			<linearGradient id="SVGID_19_" gradientUnits="userSpaceOnUse" x1="396.9037" y1="620.7939" x2="204.0009" y2="286.6766">
				<stop  offset="6.891026e-02" style="stop-color:#8E6631"/>
				<stop  offset="0.302" style="stop-color:#BC9B5B"/>
				<stop  offset="0.3167" style="stop-color:#BF9E5E"/>
				<stop  offset="0.578" style="stop-color:#F0D88C"/>
				<stop  offset="0.7759" style="stop-color:#BE9D5D"/>
				<stop  offset="0.8091" style="stop-color:#B59355"/>
				<stop  offset="0.9323" style="stop-color:#99723B"/>
				<stop  offset="1" style="stop-color:#8E6631"/>
			</linearGradient>
			<path class="st15" d="M341.4,652.9c0,0-99.7-107.8-116.5-184.2c-15.3-69.4-17-154.9-17-184.2c11.4,36.6,7.1,108.2,56.9,128.4
				c42.8,17.5,111.5,9,111.5,9s-103.3,20.9-109.6,48.9C261.5,494.1,276.9,545.6,341.4,652.9z"/>
		</g>
	</g>
	<text transform="matrix(1 0 0 1 107.5024 744.978)" class="st16 st17 st18 st19">A relationship that goes beyond ordinary!</text>
	<linearGradient id="SVGID_20_" gradientUnits="userSpaceOnUse" x1="81.6915" y1="696.6149" x2="1024.2301" y2="696.6149">
		<stop  offset="6.891026e-02" style="stop-color:#8E6631"/>
		<stop  offset="0.302" style="stop-color:#BC9B5B"/>
		<stop  offset="0.3167" style="stop-color:#BF9E5E"/>
		<stop  offset="0.578" style="stop-color:#F0D88C"/>
		<stop  offset="0.7759" style="stop-color:#BE9D5D"/>
		<stop  offset="0.8091" style="stop-color:#B59355"/>
		<stop  offset="0.9323" style="stop-color:#99723B"/>
		<stop  offset="1" style="stop-color:#8E6631"/>
	</linearGradient>
	<line class="st20" x1="81.9" y1="696.6" x2="1024" y2="696.6"/>
	<linearGradient id="SVGID_21_" gradientUnits="userSpaceOnUse" x1="81.6915" y1="769.5493" x2="1024.2301" y2="769.5493">
		<stop  offset="6.891026e-02" style="stop-color:#8E6631"/>
		<stop  offset="0.302" style="stop-color:#BC9B5B"/>
		<stop  offset="0.3167" style="stop-color:#BF9E5E"/>
		<stop  offset="0.578" style="stop-color:#F0D88C"/>
		<stop  offset="0.7759" style="stop-color:#BE9D5D"/>
		<stop  offset="0.8091" style="stop-color:#B59355"/>
		<stop  offset="0.9323" style="stop-color:#99723B"/>
		<stop  offset="1" style="stop-color:#8E6631"/>
	</linearGradient>
	<line class="st21" x1="81.9" y1="769.5" x2="1024" y2="769.5"/>
</g>
</svg>
